<svg width="40" height="40" viewBox="0 0 410 410" fill="none" xmlns="http://www.w3.org/2000/svg">
<g clip-path="url(#clip0_1059_44)">
<path fill-rule="evenodd" clip-rule="evenodd" d="M210.629 0.656578C206.052 2.54973 203.796 8.24272 205.76 12.9441C207.04 16.0065 207.287 16.1522 221.381 22.1638C265.445 40.9599 298.506 81.8104 308.654 130C311.185 142.018 312.164 166.329 310.62 178.826C307.225 206.305 296.441 232.207 279.2 254.288C271.546 264.091 256.212 278.36 245.863 285.311C219.286 303.16 192.74 311.258 160.679 311.293C135.383 311.32 114.445 306.429 92.225 295.301C61.2395 279.782 35.6439 252.719 22.2469 221.309C16.2492 207.246 16.0835 206.964 13.0684 205.704C9.07203 204.035 5.30903 204.942 2.37588 208.283C-0.478417 211.533 -0.600265 213.562 1.1558 228.574C6.43912 273.741 25.5464 314.381 56.7709 346.863C88.2399 379.599 126.736 399.876 172.402 407.768C184.541 409.865 212.384 410.692 225.495 409.343C254.9 406.32 283.29 397.109 308.582 382.384C335.994 366.427 361.748 341.443 379.387 313.696C384.716 305.314 395.17 283.749 398.499 274.272C407.382 248.979 410.613 227.709 409.906 199.14C408.916 159.051 398.062 124.618 375.913 91.3025C366.973 77.8577 358.539 67.8121 346.671 56.4747C324.618 35.4079 298.357 19.5602 270.018 10.2179C249.069 3.31114 216.778 -1.88727 210.629 0.656578ZM276.036 32.9692C326.822 53.993 365.133 94.9144 382.257 146.427C389.314 167.661 391.362 180.937 391.346 205.38C391.333 226.137 390.089 236.194 385.337 253.922C368.054 318.407 316.993 369.004 252.381 385.666C234.538 390.267 225.774 391.31 205.054 391.297C180.963 391.283 167.567 389.196 146.421 382.166C95.1351 365.116 54.0058 326.59 33.0564 275.979C31.5098 272.243 30.2443 268.984 30.2443 268.737C30.2443 268.491 32.6973 271.069 35.6957 274.467C49.2098 289.782 67.5422 303.483 87.5478 313.221C157.225 347.137 240.509 329.061 290.857 269.095C323.511 230.203 337.09 177.03 326.965 127.703C319.709 92.3538 300.401 58.4403 274.536 35.6134C271.138 32.6148 268.56 30.1617 268.806 30.1617C269.053 30.1617 272.306 31.4249 276.036 32.9692Z" fill="white"/>
<path fill-rule="evenodd" clip-rule="evenodd" d="M95.6857 56.2508C95.5803 56.7054 95.3202 57.97 95.108 59.061C94.0303 64.6042 90.3989 72.461 86.6101 77.4481C82.1266 83.3493 75.1251 88.9467 68.2679 92.112C65.2115 93.5231 59.7198 95.2793 56.8103 95.7763C55.5254 95.9958 55.6195 96.0417 59.1532 96.9185C68.0011 99.1135 74.8215 102.789 81.1332 108.763C89.0895 116.293 93.0604 123.672 95.6639 135.765C95.8403 136.584 96.0157 136.152 96.6697 133.285C99.5096 120.838 106.634 110.483 117.124 103.555C121.842 100.439 126.9 98.2952 133.121 96.7757L136.133 96.0398L133.455 95.4466C119.346 92.3216 107.464 83.2438 100.903 70.5781C98.8563 66.6262 97.715 63.4774 96.6697 58.8957C96.0977 56.3883 95.8243 55.6537 95.6857 56.2508ZM100.803 91.3136C102.01 92.5048 103.691 94.067 104.539 94.7851L106.08 96.0903L103.308 98.4764C101.784 99.7886 99.5089 102.053 98.2531 103.509L95.9695 106.156L95.0133 105.09C93.1193 102.98 88.2461 98.1623 87.0509 97.2181L85.83 96.2537L95.9695 86.1189L97.2889 87.6331C98.0148 88.4659 99.5963 90.122 100.803 91.3136Z" fill="white"/>
<path fill-rule="evenodd" clip-rule="evenodd" d="M156.692 8.1333C156.624 8.42425 156.458 9.2336 156.322 9.93187C155.633 13.4795 153.308 18.5079 150.884 21.6996C148.014 25.4764 143.533 29.0587 139.145 31.0845C137.188 31.9876 133.674 33.1116 131.812 33.4296C130.989 33.5701 131.05 33.5995 133.311 34.1607C138.974 35.5655 143.339 37.9176 147.378 41.7409C152.47 46.5602 155.012 51.2826 156.678 59.0222C156.791 59.5465 156.903 59.2699 157.322 57.4352C159.139 49.469 163.699 42.8418 170.412 38.4078C173.432 36.4138 176.669 35.0418 180.65 34.0693L182.578 33.5983L180.864 33.2187C171.835 31.2186 164.23 25.4089 160.031 17.3028C158.721 14.7736 157.991 12.7584 157.322 9.82607C156.956 8.22132 156.781 7.75116 156.692 8.1333ZM159.967 30.5735C160.74 31.3359 161.816 32.3357 162.358 32.7952L163.344 33.6306L161.57 35.1577C160.595 35.9975 159.139 37.447 158.335 38.3786L156.874 40.0727L156.262 39.3907C155.049 38.0403 151.931 34.9567 151.166 34.3524L150.384 33.7352L156.874 27.2489L157.718 28.218C158.183 28.751 159.195 29.8109 159.967 30.5735Z" fill="white"/>
<path fill-rule="evenodd" clip-rule="evenodd" d="M37.3756 131.454C37.3081 131.745 37.1417 132.554 37.0059 133.252C36.3161 136.8 33.992 141.828 31.5672 145.02C28.6977 148.797 24.2168 152.379 19.8282 154.405C17.8721 155.308 14.3574 156.432 12.4953 156.75C11.673 156.89 11.7332 156.92 13.9947 157.481C19.6574 158.886 24.0225 161.238 28.062 165.061C33.154 169.881 35.6954 174.603 37.3616 182.342C37.4745 182.867 37.5868 182.59 38.0053 180.756C39.8229 172.789 44.3824 166.162 51.096 161.728C54.1156 159.734 57.3527 158.362 61.3339 157.39L63.2617 156.919L61.5481 156.539C52.5183 154.539 44.9134 148.729 40.7148 140.623C39.4047 138.094 38.6743 136.079 38.0053 133.146C37.6393 131.542 37.4642 131.071 37.3756 131.454ZM40.6508 153.894C41.4234 154.656 42.4991 155.656 43.0415 156.116L44.0277 156.951L42.2539 158.478C41.2784 159.318 39.8224 160.767 39.0187 161.699L37.5572 163.393L36.9452 162.711C35.7331 161.361 32.6142 158.277 31.8493 157.673L31.0679 157.055L37.5572 150.569L38.4016 151.538C38.8662 152.071 39.8783 153.131 40.6508 153.894Z" fill="white"/>
<path d="M262.564 277.844L244.698 295.705L155.187 206.195C156.61 196.547 159.19 187.129 162.864 178.144L262.564 277.844Z" fill="white"/>
<path d="M287.129 253.283L269.263 271.145L207.445 209.327C208.868 199.679 211.448 190.261 215.122 181.276L287.129 253.283Z" fill="white"/>
<path d="M311.712 228.704L293.846 246.566L253.833 206.553C255.256 196.904 257.835 187.486 261.509 178.502L311.712 228.704Z" fill="white"/>
</g>
<defs>
<clipPath id="clip0_1059_44">
<rect width="410" height="410" fill="white"/>
</clipPath>
</defs>
</svg>